<svg xmlns="http://www.w3.org/2000/svg" version="1.1" xmlns:xlink="http://www.w3.org/1999/xlink" width="295" height="295"><svg xmlns="http://www.w3.org/2000/svg" version="1.1" xmlns:xlink="http://www.w3.org/1999/xlink" width="295" height="295"><svg id="OmniHai_Logo" version="1.1" viewBox="0 0 295 295" xmlns="http://www.w3.org/2000/svg">
    <defs>
        <linearGradient id="backgroundGradient" x1="147" y1="0" x2="147" y2="295" gradientUnits="userSpaceOnUse">
            <stop offset="0" stop-color="#235bb3"></stop>
            <stop offset="1" stop-color="#5293d5"></stop>
        </linearGradient>
        <mask id="hexagonMask">
            <rect id="mask" width="100%" height="100%" fill="white"></rect>
            <path id="leftSide" fill="black" d="M0,0h142.54966c-2.71553,0.65197 -5.62148,1.34204 -8.10469,2.6488c-6.31421,3.32284 -12.55796,6.91042 -18.80449,10.34938l-46.40874,25.86895l-28.42734,15.67808l-8.77954,4.85933c-0.86016,0.47578 -4.34458,2.27124 -4.93257,2.82495c-6.00176,5.65327 -11.48862,14.12153 -12.19702,22.48052c-0.485,5.72388 -0.25695,11.88179 -0.25315,17.58867l0.00513,30.77769l0.00007,52.3875l-0.00272,13.875c-0.00612,5.01416 -0.32414,10.33447 0.88862,15.14063c1.45708,5.77441 4.25962,11.15332 8.26948,15.55664c1.93901,2.12842 2.56406,3.14355 5.13809,4.60547c5.27725,2.99707 10.64619,5.87402 15.95479,8.81689l36.2127,20.00537l15.6375,8.66895c0.83276,0.46729 6.47109,3.70752 7.11885,3.93018c0.82412,0.49072 3.20054,1.84131 4.07227,2.20166c1.32935,1.15576 6.20493,3.51709 8.10645,4.57617c6.43374,3.58154 12.88301,7.19385 19.42046,10.5791c1.66816,0.86426 3.61948,1.24805 5.35928,1.89258h-140.82305z"></path>
            <path id="rightSide" fill="black" d="M151.70947,0h148.29053v295.3125h-146.05811c1.47949,-0.59473 3.01904,-0.94922 4.53809,-1.70654c4.83838,-2.40967 9.53467,-5.20898 14.26611,-7.78857l25.96729,-14.39795l68.17822,-37.53516c6.80566,-3.68848 10.94385,-10.54102 13.125,-17.77441c1.54541,-5.12109 1.24365,-10.49121 1.24365,-15.78076l-0.00586,-15.16846l-0.00146,-47.01401l0.00146,-34.4855l-0.00293,-10.49194c-0.00146,-2.58267 0.05713,-5.08887 -0.17432,-7.66406c-0.4248,-4.59961 -1.77393,-9.06606 -3.96826,-13.1313c-4.96875,-9.08716 -10.65381,-10.79297 -18.96094,-15.46201l-29.06689,-16.03667l-49.05615,-27.14247l-14.25439,-7.83892c-2.60303,-1.43225 -5.42139,-3.07484 -8.14014,-4.23215c-1.76074,-0.75001 -4.06055,-1.12162 -5.9209,-1.6616z"></path>
        </mask>
    </defs>
    <g>
        <rect id="infinitySymbol" width="295" height="295" fill="url(#backgroundGradient)" mask="url(#hexagonMask)"></rect>
        <path id="leftRing" fill="#a4cff6" d="M104.19917,93.96533c28.0793,-0.58989 36.78662,2.53447 56.72563,22.14609c5.31738,5.13325 10.35498,10.54937 15.08936,16.2249c5.75977,6.96182 10.34033,12.79761 4.29932,21.8502c-3.7207,5.57666 -12.41016,7.22754 -17.92822,3.44531c-2.79639,-1.91602 -5.03467,-4.94971 -7.30225,-7.4458c-9.64263,-10.20527 -18.20259,-23.77544 -32.80034,-27.11382c-4.18975,-0.91626 -8.64609,-0.91553 -12.91611,-0.94482c-11.65957,-0.07998 -22.71152,0.13755 -30.01699,10.77832c-3.88652,5.69634 -5.34463,12.70605 -4.05205,19.47905c0.99858,5.10791 3.72407,11.29834 7.42046,15.05859c1.2019,1.22168 2.72241,2.25146 4.14741,3.20068c3.93164,2.28809 6.33472,3.70605 11.0269,3.92871c8.02148,0.37939 16.09614,0.0293 24.09023,-0.68994c2.16855,1.64063 5.33818,4.90283 7.39731,6.96533c4.06509,4.0708 9.11118,8.52539 12.94087,12.76904c-0.11426,0.15234 -0.23569,0.29883 -0.36401,0.43799c-0.65771,0.72949 -1.6248,1.21582 -2.40439,1.82666c-9.72393,7.62451 -22.73569,6.16846 -34.2208,6.29736c-10.98633,0.12451 -20.95166,-1.31982 -30.68892,-6.63428c-4.19004,-2.28809 -7.95806,-4.51758 -11.45435,-7.79297c-10.30723,-9.74121 -16.37798,-23.13867 -16.90547,-37.31104c-0.41191,-13.47671 4.54028,-28.22695 13.85786,-38.11333c8.88267,-9.54185 20.7479,-15.77695 33.64468,-17.68022c3.50493,-0.50903 6.87803,-0.58872 10.41387,-0.68203z"></path>
        <path id="rightRing" fill="#a4cff6" d="M181.76514,92.78789c2.76123,-0.19995 5.61914,-0.10239 8.38916,-0.08687c4.20996,0.02358 8.52393,-0.01128 12.70313,0.50317c14.49463,1.78389 27.86426,8.42725 36.90674,20.12974c9.02637,11.67935 12.59473,26.30537 10.68604,40.85552c-1.7959,13.68018 -9.72949,27.27246 -20.66895,35.63525c-13.30811,10.17334 -24.07764,11.28369 -40.31543,11.28955c-5.59277,0.00146 -11.2207,0.08057 -16.77686,-0.66504c-4.77979,-0.64014 -9.9082,-1.83984 -14.25439,-3.95801c-12.11191,-5.90479 -28.71387,-23.52832 -36.92578,-34.26123c-4.18154,-5.62354 -7.3582,-11.07861 -2.99502,-17.7085c5.47808,-8.32368 16.16689,-8.29351 22.65747,-1.21494c2.22144,2.42271 4.40889,4.76572 6.56118,7.24277c2.42578,2.78174 4.91455,5.50781 7.46191,8.17969c4.11035,4.34326 5.87549,6.38818 11.08447,9.84521c8.36865,5.55322 16.78857,5.34961 26.36865,4.99072c2.66602,-0.09961 7.33887,-0.34131 9.78516,-0.84521c6.59473,-1.42236 12.35742,-5.39648 16.03125,-11.05518c3.71045,-5.74805 4.98193,-12.73682 3.53467,-19.42324c-1.47656,-6.71045 -5.68945,-13.36406 -11.43311,-17.21938c-7.40039,-4.96729 -16.60547,-4.42441 -25.06055,-3.68437c-2.50342,0.21914 -6.06592,0.47095 -8.53564,1.04062c-3.82764,-3.74648 -7.69775,-7.44961 -11.61035,-11.10835c-3.07471,-2.84399 -6.70605,-5.7646 -9.33838,-9.00381c7.02393,-7.27881 16.11328,-8.99561 25.74463,-9.47813z"></path>
    </g>
</svg></svg><style>@media (prefers-color-scheme: light) { :root { filter: none; } }
@media (prefers-color-scheme: dark) { :root { filter: none; } }
</style></svg>